<svg width="992" height="744" viewBox="0 0 992 744" fill="none" xmlns="http://www.w3.org/2000/svg"><g clip-path="url(#clip0_6083_1207)"><path opacity=".5" d="M41.78 290.446a2.325 2.325 0 002.327-2.324 2.326 2.326 0 00-2.327-2.324 2.326 2.326 0 00-2.327 2.324 2.325 2.325 0 002.327 2.324zm889.844 16.14a2.326 2.326 0 002.328-2.324 2.326 2.326 0 00-2.328-2.324 2.325 2.325 0 00-2.327 2.324 2.326 2.326 0 002.327 2.324z" fill="#fff"/><path d="M477.16 109.344a2.325 2.325 0 002.327-2.324 2.326 2.326 0 00-2.327-2.324 2.326 2.326 0 00-2.327 2.324 2.325 2.325 0 002.327 2.324zM210.283 576.782a2.326 2.326 0 002.327-2.324 2.325 2.325 0 00-2.327-2.324 2.325 2.325 0 00-2.327 2.324 2.326 2.326 0 002.327 2.324zm270.779 94.584a2.326 2.326 0 002.327-2.324 2.325 2.325 0 00-2.327-2.324 2.325 2.325 0 00-2.327 2.324 2.326 2.326 0 002.327 2.324zM80.72 98.851a2.325 2.325 0 002.327-2.324 2.326 2.326 0 00-2.327-2.324 2.325 2.325 0 00-2.327 2.324 2.325 2.325 0 002.327 2.324z" fill="#fff"/><path opacity=".5" d="M269.696 55.75a2.326 2.326 0 002.327-2.325 2.326 2.326 0 00-2.327-2.324 2.326 2.326 0 00-2.327 2.324 2.326 2.326 0 002.327 2.324zm578.658 482.429a2.326 2.326 0 002.328-2.324 2.326 2.326 0 00-2.328-2.324 2.325 2.325 0 00-2.327 2.324 2.326 2.326 0 002.327 2.324z" fill="#fff"/><path opacity=".4" d="M99.576 551.974a2.326 2.326 0 002.327-2.324 2.326 2.326 0 00-2.327-2.324 2.326 2.326 0 00-2.327 2.324 2.326 2.326 0 002.327 2.324z" fill="#fff"/><path opacity=".5" d="M853.008 673.69a2.326 2.326 0 002.327-2.324 2.325 2.325 0 00-2.327-2.324 2.325 2.325 0 00-2.327 2.324 2.326 2.326 0 002.327 2.324z" fill="#fff"/><path opacity=".2" d="M119.176 712.536a2.325 2.325 0 002.327-2.324 2.326 2.326 0 00-2.327-2.324 2.326 2.326 0 00-2.327 2.324 2.325 2.325 0 002.327 2.324zm840.46-160.562a2.326 2.326 0 002.327-2.324 2.326 2.326 0 00-2.327-2.324 2.326 2.326 0 00-2.327 2.324 2.326 2.326 0 002.327 2.324zM812.82 634.265a2.325 2.325 0 002.327-2.324 2.326 2.326 0 00-2.327-2.324 2.326 2.326 0 00-2.327 2.324 2.325 2.325 0 002.327 2.324zM336.627 266.811a2.24 2.24 0 002.24-2.238 2.239 2.239 0 00-2.24-2.237 2.239 2.239 0 00-2.24 2.237 2.24 2.24 0 002.24 2.238zM83.047 376.362a2.326 2.326 0 002.327-2.324 2.325 2.325 0 00-2.327-2.324 2.325 2.325 0 00-2.327 2.324 2.326 2.326 0 002.327 2.324zM98.415 49.941a1.165 1.165 0 10.001-2.33 1.165 1.165 0 00-.001 2.33zm157.922 299.116a1.062 1.062 0 100-2.124 1.062 1.062 0 000 2.124zm-23.469 278.468a1.165 1.165 0 100-2.327 1.165 1.165 0 000 2.327zm711.768-454.778a1.165 1.165 0 10.002-2.33 1.165 1.165 0 00-.002 2.33zM156.715 81.94a2.326 2.326 0 002.327-2.324 2.326 2.326 0 00-2.327-2.324 2.326 2.326 0 00-2.327 2.324 2.326 2.326 0 002.327 2.324zm532.853 627.591a1.643 1.643 0 100-3.285 1.643 1.643 0 100 3.285zm226.54-34.198a1.644 1.644 0 100-3.286 1.643 1.643 0 100 3.286z" fill="#fff"/><path opacity=".4" d="M85.374 623.145a2.325 2.325 0 002.327-2.324 2.326 2.326 0 00-2.327-2.324 2.325 2.325 0 100 4.648z" fill="#fff"/><path opacity=".2" d="M606.145 611.41a2.326 2.326 0 002.327-2.324 2.325 2.325 0 00-2.327-2.324 2.325 2.325 0 00-2.327 2.324 2.326 2.326 0 002.327 2.324z" fill="#fff"/><path opacity=".1" d="M386.033 629.617a4.42 4.42 0 004.422-4.416 4.42 4.42 0 00-4.422-4.417 4.42 4.42 0 00-4.423 4.417 4.42 4.42 0 004.423 4.416z" fill="#fff"/><path opacity=".5" d="M189.613 316.959a2.326 2.326 0 002.327-2.324 2.326 2.326 0 00-2.327-2.324 2.326 2.326 0 00-2.327 2.324 2.326 2.326 0 002.327 2.324z" fill="#fff"/><path opacity=".2" d="M417.558 532.33a1.495 1.495 0 10.002-2.99 1.495 1.495 0 00-.002 2.99z" fill="#fff"/><g opacity=".6"><path opacity=".4" d="M448.256 553.931l295.29-226.475c8.998-6.898 10.693-19.772 3.786-28.754-6.907-8.986-19.799-10.679-28.793-3.781l167.33-128.589c8.998-6.897 10.693-19.772 3.786-28.754-6.907-8.986-19.799-10.678-28.793-3.781L732.22 232.703l-9.68 7.422c-8.998 6.897-21.886 5.205-28.793-3.782-6.906-8.986-5.212-21.856 3.786-28.754l28-22.141c8.998-6.898 10.693-19.772 3.786-28.754-6.907-8.986-19.799-10.679-28.793-3.781l-57.433 44.629c-8.998 6.898-21.886 5.205-28.792-3.781-6.907-8.986-5.213-21.856 3.786-28.754l86.858-67.444c8.998-6.897 10.692-19.772 3.786-28.754-6.907-8.986-19.799-10.678-28.793-3.78L290.648 364.51a20.63 20.63 0 00-2.215 1.969 123.187 123.187 0 00-21.08 23.619c-38.432 56.097-24.048 132.687 32.124 171.068 46.665 31.883 107.491 27.363 148.779-7.236z" fill="url(#paint0_linear_6083_1207)"/><path opacity=".4" d="M795.485 104.552c-6.907-8.986-19.798-10.679-28.793-3.781l-15.384 11.739c-8.998 6.898-10.693 19.772-3.786 28.754 6.907 8.986 19.799 10.679 28.793 3.781l15.384-11.739c8.998-6.898 10.693-19.772 3.786-28.754z" fill="url(#paint1_linear_6083_1207)"/></g><path opacity=".6" d="M448.256 553.931l161.928-124.275c8.998-6.898 10.693-19.773 3.786-28.755-6.907-8.986-19.799-10.678-28.793-3.781l45.322-34.743c8.998-6.898 10.693-19.772 3.786-28.754-6.907-8.986-19.798-10.679-28.793-3.781l-53.216 40.943-9.681 7.422c-8.998 6.897-21.886 5.205-28.792-3.781-6.907-8.986-5.212-21.857 3.786-28.754l94.769-72.765c8.998-6.897 10.693-19.772 3.786-28.754-6.907-8.986-19.799-10.678-28.793-3.781l-128.067 98.287c-8.998 6.897-21.886 5.205-28.793-3.781-6.907-8.987-5.212-21.857 3.786-28.754l42.979-32.944c8.998-6.898 10.693-19.772 3.786-28.754-6.907-8.987-19.799-10.679-28.793-3.781L290.648 364.511a20.63 20.63 0 00-2.215 1.969 123.187 123.187 0 00-21.08 23.619c-38.432 56.097-24.048 132.687 32.124 171.068 46.665 31.882 107.491 27.363 148.779-7.236z" fill="url(#paint2_linear_6083_1207)"/><path d="M541.351 198.182c-6.907-8.986-19.798-10.678-28.793-3.781l-8.217 6.299c-8.998 6.898-10.693 19.772-3.786 28.754 6.907 8.986 19.799 10.679 28.793 3.781l8.217-6.299c8.998-6.897 10.693-19.768 3.786-28.754z" fill="#CE516A"/><path d="M379.25 560.048c56.636 0 102.548-45.851 102.548-102.41 0-56.56-45.912-102.41-102.548-102.41s-102.548 45.85-102.548 102.41c0 56.559 45.912 102.41 102.548 102.41z" fill="#FFAD00"/><path d="M272.164 466.698c-15.145 0-26.854-5.403-34.815-10.856-12.045-8.251-18.174-18.34-18.427-18.765-2-3.335-.909-7.657 2.431-9.655 3.331-1.989 7.651-.912 9.651 2.403.07.115 5.097 8.231 14.752 14.703 12.545 8.408 26.912 10.286 42.706 5.589a7.049 7.049 0 018.766 4.735 7.037 7.037 0 01-4.741 8.755c-7.336 2.183-14.119 3.091-20.323 3.091z" fill="#FFD000"/><path d="M365.598 562.343c55.948 0 101.304-45.294 101.304-101.168 0-55.873-45.356-101.167-101.304-101.167-55.949 0-101.304 45.294-101.304 101.167 0 55.874 45.355 101.168 101.304 101.168z" fill="#FFE300"/><path d="M275.351 507.159a101.673 101.673 0 0038.754 41.15l141.744-133.121a101.667 101.667 0 00-38.754-41.15L275.351 507.159z" fill="#FFEB76"/><path d="M365.598 537.036c41.953 0 75.962-33.964 75.962-75.861 0-41.896-34.009-75.86-75.962-75.86s-75.963 33.964-75.963 75.86c0 41.897 34.01 75.861 75.963 75.861z" fill="#FFD000"/><path d="M388.677 473.509c2.141.274 3.576 2.384 3.016 4.465-3.815 14.182-17.635 23.719-32.626 21.794-14.992-1.924-25.95-14.641-26.055-29.329-.015-2.154 1.906-3.833 4.047-3.558l51.618 6.628z" fill="#BA0000"/><path d="M382.713 472.741l-40.458-5.197c2.514 8.428 9.917 14.918 19.219 15.824 8.816.858 16.935-3.535 21.239-10.627z" fill="#FF0038"/><path d="M337.071 448.291a6.418 6.418 0 01-5.265-7.395l.583-3.441c.59-3.494 3.905-5.846 7.404-5.256a6.418 6.418 0 015.264 7.396l-.582 3.44a6.415 6.415 0 01-7.404 5.256z" fill="url(#paint3_linear_6083_1207)"/><path d="M387.059 456.746a6.418 6.418 0 01-5.264-7.396l.582-3.441c.59-3.494 3.906-5.846 7.404-5.256a6.418 6.418 0 015.264 7.396l-.582 3.441c-.59 3.494-3.906 5.846-7.404 5.256z" fill="url(#paint4_linear_6083_1207)"/><path d="M517.742 494.73c-6.8 0-13.913-1.073-21.27-3.224-10.206-2.98-18.749-7.413-24.123-10.612a7.035 7.035 0 01-2.446-9.651c1.992-3.339 6.319-4.433 9.663-2.444 8.077 4.809 29.02 15.463 48.96 10.592 3.782-.924 7.597 1.387 8.523 5.164a7.038 7.038 0 01-5.171 8.511c-4.543 1.111-9.259 1.664-14.136 1.664z" fill="#FFD000"/><path opacity=".5" d="M368.314 529.944c-41.933-1.284-74.884-36.275-73.594-78.151.43-14.035 4.658-27.058 11.66-38.128-9.995 12.404-16.178 28.04-16.703 45.182-1.285 41.877 31.661 76.868 73.594 78.151 27.879.855 52.708-13.407 66.596-35.366-14.425 17.898-36.786 29.072-61.553 28.312z" fill="#FFAD00"/><path opacity=".2" d="M814.928 507.77c49.774 0 90.123-40.296 90.123-90.002 0-49.707-40.349-90.003-90.123-90.003-49.774 0-90.123 40.296-90.123 90.003 0 49.706 40.349 90.002 90.123 90.002z" fill="url(#paint5_radial_6083_1207)"/><path d="M809.79 438.501c13.242 0 23.977-10.72 23.977-23.945 0-13.224-10.735-23.945-23.977-23.945s-23.978 10.721-23.978 23.945c0 13.225 10.736 23.945 23.978 23.945z" fill="#5835D2"/><path d="M814.894 438.142c13.243 0 23.978-10.72 23.978-23.945s-10.735-23.945-23.978-23.945c-13.242 0-23.977 10.72-23.977 23.945s10.735 23.945 23.977 23.945z" fill="#A088FF"/><path d="M836.677 424.215a24.053 24.053 0 01-8.775 10.101l-34.786-30.141a24.06 24.06 0 018.775-10.101l34.786 30.141z" fill="#AEACFF"/><path d="M814.895 432.153c9.93 0 17.98-8.039 17.98-17.956s-8.05-17.956-17.98-17.956c-9.931 0-17.98 8.039-17.98 17.956s8.049 17.956 17.98 17.956z" fill="#6E69F0"/><path d="M808.385 410.197c-1.434 0-2.625-1.172-2.679-1.226a.578.578 0 010-.813.58.58 0 01.815 0c.016.017 1.041 1.016 2.054.875.529-.074.996-.47 1.393-1.176a.581.581 0 01.785-.223.58.58 0 01.223.784c-.582 1.04-1.339 1.635-2.244 1.759-.12.016-.236.02-.347.02zm11.056-1.147c-1.434 0-2.624-1.173-2.678-1.226a.578.578 0 010-.813.579.579 0 01.814 0c.017.016 1.038 1.019 2.055.875.529-.075.996-.471 1.393-1.177a.583.583 0 01.785-.223.581.581 0 01.223.785c-.583 1.04-1.339 1.634-2.244 1.758a3.454 3.454 0 01-.348.021z" fill="#190E49"/><path d="M815.403 417.314a2.983 2.983 0 002.984-2.981 2.982 2.982 0 00-2.984-2.98 2.982 2.982 0 00-2.984 2.98 2.983 2.983 0 002.984 2.981z" fill="#3D24BB"/><path opacity=".5" d="M832.829 412.926c-.699-9.816-9.168-17.226-18.972-16.656 8.878.524 16.203 7.558 16.847 16.656.703 9.89-6.758 18.48-16.661 19.181l-.231.013c.777.045 1.562.041 2.356-.013 9.903-.701 17.364-9.291 16.661-19.181z" fill="#3D24BB"/><path opacity=".5" d="M259.139 288.122c61.845 0 111.981-50.068 111.981-111.829 0-61.762-50.136-111.83-111.981-111.83-61.845 0-111.98 50.068-111.98 111.83 0 61.761 50.135 111.829 111.98 111.829z" fill="url(#paint6_radial_6083_1207)"/><path d="M253.068 219.395c25.145 0 45.528-20.357 45.528-45.468 0-25.111-20.383-45.467-45.528-45.467s-45.529 20.356-45.529 45.467c0 25.111 20.384 45.468 45.529 45.468z" fill="#008F98"/><path d="M262.5 217.05c25.145 0 45.529-20.356 45.529-45.467 0-25.111-20.384-45.468-45.529-45.468-25.145 0-45.529 20.357-45.529 45.468 0 25.111 20.384 45.467 45.529 45.467z" fill="#00E2C6"/><path d="M306.52 183.219a45.64 45.64 0 01-13.107 21.753l-74.929-45.021a45.663 45.663 0 0113.107-21.754l74.929 45.022z" fill="#00F1D8"/><path d="M262.5 205.674c18.853 0 34.137-15.263 34.137-34.091 0-18.828-15.284-34.092-34.137-34.092s-34.137 15.264-34.137 34.092 15.284 34.091 34.137 34.091z" fill="#00BCB7"/><path d="M268.506 164.202a2.31 2.31 0 001.686-2.798l-.446-1.788a2.312 2.312 0 00-4.489 1.115l.447 1.787a2.313 2.313 0 002.802 1.684z" fill="url(#paint7_linear_6083_1207)"/><path d="M256.383 167.711a2.311 2.311 0 001.686-2.799l-.446-1.787a2.315 2.315 0 00-2.803-1.684 2.31 2.31 0 00-1.686 2.798l.446 1.788a2.318 2.318 0 002.803 1.684z" fill="url(#paint8_linear_6083_1207)"/><path d="M261.289 177.684c-5.684 0-10.238-2.101-10.329-2.143a1.81 1.81 0 01-.86-2.414 1.821 1.821 0 012.418-.863c.62.289 14.979 6.827 22.518-6.526a1.813 1.813 0 113.162 1.779c-4.584 8.119-11.296 10.167-16.909 10.167z" fill="#006D8A"/><path d="M295.628 163.356c-4.55-18.274-23.072-29.402-41.37-24.857a34.002 34.002 0 00-17.315 10.476 34.045 34.045 0 0114.351-7.517c18.299-4.544 36.82 6.584 41.371 24.858 2.819 11.314-.385 22.715-7.577 30.838 9.238-8.152 13.723-21.031 10.54-33.798z" fill="#00ABA5"/><path opacity=".2" d="M683.05 741.068c81.189 0 147.006-65.729 147.006-146.809S764.239 447.45 683.05 447.45c-81.189 0-147.006 65.729-147.006 146.809s65.817 146.809 147.006 146.809z" fill="url(#paint9_radial_6083_1207)"/><path d="M687.378 638.715c24.373 0 44.131-19.732 44.131-44.072 0-24.341-19.758-44.072-44.131-44.072-24.374 0-44.132 19.731-44.132 44.072 0 24.34 19.758 44.072 44.132 44.072z" fill="#D81891"/><path d="M677.962 638.331c24.373 0 44.132-19.732 44.132-44.072 0-24.341-19.759-44.072-44.132-44.072-24.373 0-44.131 19.731-44.131 44.072 0 24.34 19.758 44.072 44.131 44.072z" fill="#FF42DD"/><path d="M638.448 613.903a44.304 44.304 0 0016.703 18.096l62.326-57.376a44.31 44.31 0 00-16.703-18.096l-62.326 57.376z" fill="#FF69ED"/><path d="M677.962 627.306c18.276 0 33.092-14.796 33.092-33.047 0-18.251-14.816-33.047-33.092-33.047-18.276 0-33.091 14.796-33.091 33.047 0 18.251 14.815 33.047 33.091 33.047z" fill="#FF30C5"/><path d="M693.227 588.918c1.322.053 2.31 1.333 2.074 2.712-1.595 9.386-9.552 16.346-18.819 15.97-9.267-.376-16.632-7.958-17.459-17.444-.12-1.391.967-2.588 2.29-2.534l31.914 1.296z" fill="#70003F"/><path d="M669.836 583.192a2.355 2.355 0 01-2.257-2.443l.017-.421a2.357 2.357 0 012.447-2.254 2.356 2.356 0 012.257 2.444l-.017.421a2.353 2.353 0 01-2.447 2.253zm14.186.302a2.356 2.356 0 01-2.257-2.444l.016-.421a2.358 2.358 0 012.447-2.254 2.356 2.356 0 012.257 2.444l-.016.421a2.357 2.357 0 01-2.447 2.254z" fill="#38003F"/><path d="M687.725 604.1c-1.459-2.762-5.629-4.76-10.548-4.76-4.902 0-9.06 1.982-10.536 4.731 2.79 2.088 6.163 3.376 9.842 3.525 4.166.173 8.064-1.148 11.242-3.496z" fill="#FF60C0"/><path opacity=".5" d="M648.901 593.301c.739-18.174 16.045-32.324 34.228-31.684a32.924 32.924 0 00-3.819-.376c-18.262-.743-33.666 13.44-34.41 31.676-.744 18.237 13.458 33.621 31.719 34.364.062.004.12.004.182.004-16.381-2.563-28.591-17.043-27.9-33.984z" fill="#E6189A"/></g><defs><linearGradient id="paint0_linear_6083_1207" x1="877.752" y1="69.052" x2="297.264" y2="515.263" gradientUnits="userSpaceOnUse"><stop stop-color="#FF44AF"/><stop offset=".114" stop-color="#F943AE"/><stop offset=".268" stop-color="#E83FAA"/><stop offset=".444" stop-color="#CC3AA4"/><stop offset=".636" stop-color="#A5329B"/><stop offset=".84" stop-color="#732990"/><stop offset="1" stop-color="#472087"/></linearGradient><linearGradient id="paint1_linear_6083_1207" x1="809.47" y1="93.755" x2="347.604" y2="448.784" gradientUnits="userSpaceOnUse"><stop stop-color="#FF44AF"/><stop offset=".114" stop-color="#F943AE"/><stop offset=".268" stop-color="#E83FAA"/><stop offset=".444" stop-color="#CC3AA4"/><stop offset=".636" stop-color="#A5329B"/><stop offset=".84" stop-color="#732990"/><stop offset="1" stop-color="#472087"/></linearGradient><linearGradient id="paint2_linear_6083_1207" x1="588.388" y1="294.192" x2="216.364" y2="572.895" gradientUnits="userSpaceOnUse"><stop stop-color="#FF33C9"/><stop offset=".036" stop-color="#FF48B1"/><stop offset=".108" stop-color="#FF6B88"/><stop offset=".186" stop-color="#FF8B63"/><stop offset=".269" stop-color="#FFA544"/><stop offset=".36" stop-color="#FFBB2B"/><stop offset=".461" stop-color="#FFCB18"/><stop offset=".578" stop-color="#FFD70A"/><stop offset=".725" stop-color="#FFDE02"/><stop offset="1" stop-color="#FFE000"/></linearGradient><linearGradient id="paint3_linear_6083_1207" x1="339.474" y1="433.975" x2="336.673" y2="450.539" gradientUnits="userSpaceOnUse"><stop stop-color="#3F3E40"/><stop offset=".09" stop-color="#313032"/><stop offset=".268" stop-color="#1B1B1C"/><stop offset=".464" stop-color="#0C0C0C"/><stop offset=".687" stop-color="#030303"/><stop offset="1"/></linearGradient><linearGradient id="paint4_linear_6083_1207" x1="389.462" y1="442.428" x2="386.662" y2="458.992" gradientUnits="userSpaceOnUse"><stop stop-color="#3F3E40"/><stop offset=".09" stop-color="#313032"/><stop offset=".268" stop-color="#1B1B1C"/><stop offset=".464" stop-color="#0C0C0C"/><stop offset=".687" stop-color="#030303"/><stop offset="1"/></linearGradient><linearGradient id="paint7_linear_6083_1207" x1="267.899" y1="157.745" x2="266.994" y2="165.793" gradientUnits="userSpaceOnUse"><stop stop-color="#3F3E40"/><stop offset=".09" stop-color="#313032"/><stop offset=".268" stop-color="#1B1B1C"/><stop offset=".464" stop-color="#0C0C0C"/><stop offset=".687" stop-color="#030303"/><stop offset="1"/></linearGradient><linearGradient id="paint8_linear_6083_1207" x1="256.001" y1="160.213" x2="253.963" y2="173.139" gradientUnits="userSpaceOnUse"><stop stop-color="#3F3E40"/><stop offset=".09" stop-color="#313032"/><stop offset=".268" stop-color="#1B1B1C"/><stop offset=".464" stop-color="#0C0C0C"/><stop offset=".687" stop-color="#030303"/><stop offset="1"/></linearGradient><radialGradient id="paint5_radial_6083_1207" cx="0" cy="0" r="1" gradientUnits="userSpaceOnUse" gradientTransform="matrix(90.1239 0 0 90.0028 814.926 417.767)"><stop stop-color="#A088FF"/><stop offset=".098" stop-color="#9A83F6" stop-opacity=".902"/><stop offset=".259" stop-color="#8973DD" stop-opacity=".741"/><stop offset=".462" stop-color="#6E59B5" stop-opacity=".538"/><stop offset=".7" stop-color="#48367D" stop-opacity=".3"/><stop offset=".965" stop-color="#190937" stop-opacity=".035"/><stop offset="1" stop-color="#12032D" stop-opacity="0"/></radialGradient><radialGradient id="paint6_radial_6083_1207" cx="0" cy="0" r="1" gradientUnits="userSpaceOnUse" gradientTransform="matrix(111.98 0 0 111.83 259.139 176.293)"><stop offset=".009" stop-color="#00ABA5"/><stop offset=".123" stop-color="#01A29F" stop-opacity=".884"/><stop offset=".311" stop-color="#04898D" stop-opacity=".695"/><stop offset=".549" stop-color="#086170" stop-opacity=".455"/><stop offset=".824" stop-color="#0E2A49" stop-opacity=".177"/><stop offset="1" stop-color="#12032D" stop-opacity="0"/></radialGradient><radialGradient id="paint9_radial_6083_1207" cx="0" cy="0" r="1" gradientUnits="userSpaceOnUse" gradientTransform="matrix(147.008 0 0 146.81 683.049 594.261)"><stop stop-color="#FF60C0"/><stop offset=".09" stop-color="#F65CBA" stop-opacity=".91"/><stop offset=".237" stop-color="#DD53AB" stop-opacity=".763"/><stop offset=".423" stop-color="#B54392" stop-opacity=".577"/><stop offset=".641" stop-color="#7D2D6F" stop-opacity=".359"/><stop offset=".883" stop-color="#371144" stop-opacity=".117"/><stop offset="1" stop-color="#12032D" stop-opacity="0"/></radialGradient><clipPath id="clip0_6083_1207"><path fill="#fff" transform="translate(0 .193)" d="M0 0h992v743H0z"/></clipPath></defs></svg>