<svg width="1440" height="1080" viewBox="0 0 1440 1080" fill="none" xmlns="http://www.w3.org/2000/svg"><g clip-path="url(#clip0_6003_3020)"><path d="M1342.25 553.926a6.74 6.74 0 006.74-6.738 6.74 6.74 0 00-13.48 0 6.74 6.74 0 006.74 6.738z" fill="#fff"/><path opacity=".5" d="M73.224 388.932a3.372 3.372 0 100-6.744 3.372 3.372 0 000 6.744z" fill="#fff"/><path d="M1165.34 182.424c1.87 0 3.38-1.51 3.38-3.372a3.374 3.374 0 00-3.38-3.372 3.372 3.372 0 000 6.744zm-633.296 1.416a3.372 3.372 0 100-6.743 3.372 3.372 0 000 6.743z" fill="#fff"/><path opacity=".5" d="M399.78 87.426a3.372 3.372 0 100-6.743 3.372 3.372 0 000 6.743zm844.39 895.722a3.372 3.372 0 000-6.744 3.372 3.372 0 000 6.744z" fill="#fff"/><path opacity=".2" d="M181.896 1039.45a3.371 3.371 0 003.372-3.37 3.371 3.371 0 00-6.744 0c0 1.86 1.51 3.37 3.372 3.37zM1398.53 806.718a3.372 3.372 0 000-6.744 3.372 3.372 0 000 6.744zm-317.5-446.178a3.372 3.372 0 000-6.744c-1.87 0-3.38 1.51-3.38 3.372a3.374 3.374 0 003.38 3.372zm-552.352-7.356a3.372 3.372 0 100-6.745 3.372 3.372 0 000 6.745zm372.792 89.784a3.372 3.372 0 100-6.745 3.372 3.372 0 000 6.745zm-706.896 18.534a3.372 3.372 0 100-6.745 3.372 3.372 0 000 6.745zM151.836 78.996a1.685 1.685 0 10.001-3.37 1.685 1.685 0 00-.001 3.37zM380.82 480.948a1.686 1.686 0 100-3.372 1.686 1.686 0 000 3.372zm-34.35 435.276a1.686 1.686 0 100-3.372 1.686 1.686 0 000 3.372zm927.55-425.544c.93 0 1.68-.755 1.68-1.686 0-.931-.75-1.686-1.68-1.686-.94 0-1.69.755-1.69 1.686 0 .931.75 1.686 1.69 1.686zm113.71-274.974c.94 0 1.69-.755 1.69-1.686 0-.931-.75-1.686-1.69-1.686-.93 0-1.68.755-1.68 1.686 0 .931.75 1.686 1.68 1.686zM236.232 125.388a3.372 3.372 0 100-6.743 3.372 3.372 0 000 6.743zm-109.848 103.2a2.381 2.381 0 10.001-4.763 2.381 2.381 0 00-.001 4.763zM974.646 83.064a2.382 2.382 0 100-4.763 2.382 2.382 0 000 4.763zm-317.442 688.95a2.381 2.381 0 10.001-4.763 2.381 2.381 0 00-.001 4.763zm678.306 213.51c1.32 0 2.38-1.066 2.38-2.382a2.377 2.377 0 00-2.38-2.382 2.377 2.377 0 00-2.38 2.382 2.377 2.377 0 002.38 2.382z" fill="#fff"/><path opacity=".4" d="M433.26 834.48a3.372 3.372 0 100-6.745 3.372 3.372 0 000 6.745z" fill="#fff"/><path opacity=".2" d="M886.818 892.866a3.372 3.372 0 100-6.743 3.372 3.372 0 000 6.743z" fill="#fff"/><path opacity=".1" d="M568.188 919.254a6.402 6.402 0 100-12.804 6.402 6.402 0 100 12.804z" fill="#fff"/><path opacity=".5" d="M40.362 568.212a3.372 3.372 0 100-6.744 3.372 3.372 0 000 6.744zM1352.36 112.866a3.372 3.372 0 000-6.744 3.372 3.372 0 000 6.744z" fill="#fff"/><path d="M787.302 979.77a8.46 8.46 0 008.46-8.46 8.46 8.46 0 10-16.92 0 8.46 8.46 0 008.46 8.46z" fill="#fff"/><mask id="a" style="mask-type:luminance" maskUnits="userSpaceOnUse" x="4" y="61" width="1512" height="1178"><path d="M1440.58 61.089L4.09 161.538 79.427 1238.91l1436.493-100.45-75.34-1077.371z" fill="#fff"/></mask><g mask="url(#a)"><path d="M1643.93 236.421l-369.2 25.817c-13.3.93-23.32 12.463-22.39 25.763.93 13.3 12.46 23.325 25.76 22.395l25.35-1.773c10.7-.748 19.99 7.324 20.74 18.026s-7.32 19.987-18.03 20.736l-138.15 9.661c-13.3.93-23.33 12.463-22.4 25.763l.59 8.319c.93 13.3 12.46 23.326 25.76 22.396l208.09-14.552c12.96-.906 24.19 8.864 25.1 21.817.91 12.958-8.87 24.191-21.82 25.097l-59.58 4.166c-14.19.993-24.89 13.301-23.89 27.486.99 14.191 13.3 24.885 27.48 23.893l344.92-24.119c14.19-.993 24.89-13.301 23.89-27.486-.99-14.191-13.3-24.885-27.48-23.893l-62.72 4.386c-13.26.927-24.76-9.071-25.69-22.335-.93-13.263 9.07-24.765 22.33-25.692l155.66-10.885c12.74-.891 23.79 8.718 24.68 21.455 1.05 15.023 14.08 26.346 29.1 25.296l254.8-17.817c15.42-1.079 27.05-14.457 25.97-29.881-1.08-15.424-14.45-27.054-29.88-25.975l-108.66 7.598c-13.74.961-25.66-9.404-26.62-23.147-.97-13.748 9.4-25.666 23.14-26.627l29.15-2.039c10.7-.748 18.78-10.034 18.03-20.736-.75-10.701-10.04-18.773-20.74-18.025l-15.57 1.089-266.18 18.613c-12.78.893-23.86-8.737-24.76-21.516-.96-13.82-12.95-24.241-26.78-23.274z" fill="#fff" opacity=".1"/></g><mask id="b" style="mask-type:luminance" maskUnits="userSpaceOnUse" x="-28" y="43" width="1496" height="1154"><path d="M1410.75 43.056L-27.274 118.42l56.522 1078.52 1438.022-75.36-56.52-1078.524z" fill="#fff"/></mask><g mask="url(#b)"><path d="M-256.561 134.684l-369.597 19.37c-13.314.698-23.54 12.054-22.842 25.368.698 13.314 12.055 23.54 25.368 22.842l25.382-1.33c10.713-.562 19.856 7.671 20.418 18.384.561 10.714-7.672 19.857-18.385 20.418l-138.302 7.249c-13.314.697-23.539 12.054-22.842 25.368l.437 8.328c.698 13.314 12.054 23.54 25.368 22.842l208.316-10.917c12.966-.68 24.033 9.285 24.713 22.251.679 12.966-9.285 24.033-22.252 24.712l-59.648 3.126c-14.206.745-25.113 12.864-24.369 27.065.745 14.206 12.864 25.113 27.065 24.369l345.288-18.096c14.206-.745 25.113-12.864 24.369-27.065-.745-14.206-12.864-25.113-27.065-24.369l-62.781 3.291c-13.278.695-24.603-9.502-25.299-22.78-.696-13.277 9.501-24.603 22.779-25.298l155.822-8.167c12.757-.668 23.634 9.132 24.303 21.882.788 15.04 13.614 26.588 28.653 25.8l226.016-11.845c15.441-.809 27.302-13.982 26.492-29.423-.809-15.44-13.982-27.301-29.422-26.492l-79.733 4.178c-13.763.722-25.499-9.851-26.22-23.608-.72-13.763 9.851-25.498 23.609-26.219l29.18-1.529c10.713-.562 18.946-9.705 18.384-20.419-.561-10.713-9.705-18.946-20.418-18.384l-15.59.817-266.467 13.965c-12.786.67-23.701-9.152-24.372-21.945-.719-13.835-12.523-24.464-26.358-23.739z" fill="#fff" opacity=".1"/></g><mask id="c" style="mask-type:luminance" maskUnits="userSpaceOnUse" x="-66" y="-37" width="1496" height="1154"><path d="M1372.76-36.942L-65.27 38.422-8.747 1116.94l1438.027-75.36-56.52-1078.522z" fill="#fff"/></mask><g mask="url(#c)" fill="#fff"><path opacity=".1" d="M199.299 958.26c-.726-13.865 9.925-25.701 23.796-26.428l18.778-.984c13.865-.726 24.522-12.556 23.796-26.427-.727-13.865-12.557-24.523-26.428-23.796l-335.168 17.566c-13.865.726-24.522 12.556-23.796 26.427.727 13.865 12.557 24.523 26.428 23.796l122.412-6.416c13.865-.726 25.7 9.925 26.428 23.796.726 13.865-9.925 25.7-23.796 26.427l-80.613 4.225c-13.865.727-24.523 12.554-23.796 26.424.727 13.87 12.557 24.53 26.428 23.8l404.457-21.2c13.865-.72 24.522-12.55 23.795-26.425-.726-13.865-12.556-24.523-26.427-23.796l-129.866 6.806c-13.865.721-25.701-9.93-26.428-23.795zm268.764 60.14l-24.614 1.29c-12.912.68-23.923-9.24-24.599-22.149-.677-12.912 9.243-23.922 22.149-24.598l24.614-1.29c12.912-.677 23.923 9.242 24.599 22.148.677 12.909-9.243 23.919-22.149 24.599z"/></g><path opacity=".2" d="M180.73 400.46c90.978 0 164.73-73.752 164.73-164.73S271.708 71 180.73 71 16 144.752 16 235.73s73.752 164.73 164.73 164.73z" fill="url(#paint0_radial_6003_3020)"/><path d="M168.784 284.012c30.795 0 55.758-24.964 55.758-55.758 0-30.794-24.963-55.758-55.758-55.758-30.794 0-55.758 24.964-55.758 55.758 0 30.794 24.964 55.758 55.758 55.758z" fill="#6232D6"/><path d="M163.186 307.424a4.434 4.434 0 01-4.308-3.402c-2.958-12.354 1.464-31.896 1.656-32.724a4.436 4.436 0 018.646 1.986c-.06.258-4.14 18.372-1.674 28.668a4.437 4.437 0 01-3.276 5.346 4.512 4.512 0 01-1.044.126zm35.388-2.178a4.433 4.433 0 01-4.104-2.754c-5.802-14.136-5.304-27.642-5.28-28.212a4.434 4.434 0 014.62-4.242 4.431 4.431 0 014.242 4.608c-.006.132-.414 12.21 4.62 24.474a4.434 4.434 0 01-2.418 5.784 4.25 4.25 0 01-1.68.342zm49.248-63.12c-1.242 0-2.562-.06-3.936-.204-7.452-.792-17.982-4.29-25.854-16.458a3.878 3.878 0 011.152-5.364 3.878 3.878 0 015.364 1.152c11.772 18.192 30.522 12.294 31.314 12.036a3.884 3.884 0 014.896 2.46 3.873 3.873 0 01-2.436 4.896c-.222.072-4.5 1.482-10.5 1.482z" fill="#7A75F5"/><path d="M180.664 283.166c30.795 0 55.758-24.964 55.758-55.758 0-30.794-24.963-55.758-55.758-55.758-30.794 0-55.758 24.964-55.758 55.758 0 30.794 24.964 55.758 55.758 55.758z" fill="#8E88FF"/><path d="M231.316 250.742a56.009 56.009 0 01-20.406 23.52l-80.898-70.188a56.009 56.009 0 0120.406-23.52l80.898 70.188z" fill="#AFADFF"/><path d="M180.664 269.222c23.093 0 41.814-18.721 41.814-41.814s-18.721-41.814-41.814-41.814-41.814 18.721-41.814 41.814 18.721 41.814 41.814 41.814z" fill="#6969FF"/><path d="M104.392 276.644a3.881 3.881 0 01-2.082-7.158c12.384-7.848 15.03-26.22 15.06-26.406a3.879 3.879 0 017.686 1.038c-.12.9-3.12 22.122-18.594 31.926a3.85 3.85 0 01-2.07.6z" fill="#7A75F5"/><path d="M165.52 218.102c-3.336 0-6.102-2.73-6.228-2.856a1.344 1.344 0 011.902-1.896c.036.036 2.43 2.37 4.782 2.04 1.224-.174 2.316-1.098 3.24-2.742a1.34 1.34 0 012.34 1.308c-1.356 2.424-3.114 3.804-5.226 4.092a6.26 6.26 0 01-.81.054zm25.71-2.676c-3.336 0-6.102-2.73-6.228-2.856a1.344 1.344 0 011.902-1.896c.024.024 2.418 2.37 4.782 2.04 1.224-.174 2.316-1.092 3.24-2.742a1.34 1.34 0 012.34 1.308c-1.356 2.424-3.114 3.804-5.226 4.092-.27.036-.54.054-.81.054z" fill="#160649"/><path d="M181.846 234.668a6.942 6.942 0 100-13.884 6.942 6.942 0 000 13.884z" fill="#421FBF"/><path opacity=".5" d="M222.37 224.45c-1.62-22.854-21.318-40.104-44.124-38.784 20.646 1.224 37.68 17.598 39.18 38.784 1.632 23.034-15.714 43.032-38.748 44.664-.18.012-.36.024-.54.03 1.8.108 3.63.102 5.484-.03 23.034-1.632 40.38-21.624 38.748-44.664z" fill="#421FBF"/><path opacity=".4" d="M1272.64 1101.87c169.79 0 307.43-137.642 307.43-307.434 0-169.792-137.64-307.436-307.43-307.436-169.8 0-307.44 137.644-307.44 307.436 0 169.792 137.64 307.434 307.44 307.434z" fill="url(#paint1_radial_6003_3020)"/><path d="M1269.66 1004.72c-.9 0-1.81-.1-2.73-.3-6.83-1.5-11.14-8.255-9.64-15.082 6.42-29.211 5.65-91.842 5.64-92.474-.1-6.989 5.49-12.734 12.48-12.829h.18c6.9 0 12.55 5.555 12.65 12.482.04 2.689.82 66.219-6.23 98.256-1.3 5.917-6.53 9.947-12.35 9.947z" fill="#FFD200"/><path d="M1296.42 935.326c87.91 0 159.17-71.262 159.17-159.168s-71.26-159.168-159.17-159.168c-87.91 0-159.17 71.262-159.17 159.168s71.26 159.168 159.17 159.168z" fill="#FF9D00"/><path d="M1183.75 981.418c-2.9 0-5.82-.993-8.2-3.022-5.32-4.533-5.96-12.52-1.43-17.841 25.34-29.729 42.32-65.516 42.48-65.872 2.98-6.319 10.52-9.037 16.84-6.063 6.33 2.975 9.04 10.506 6.07 16.829-.75 1.583-18.53 39.132-46.13 71.521a12.591 12.591 0 01-9.63 4.448zM1047.72 719.96c-6.31 2.66-8.72 10.357-5.05 16.145 3.98 6.257 9.96 14.282 18.28 21.927 13.39 12.31 35.17 25.704 66.56 25.704 5.42 0 11.14-.399 17.14-1.273 5.99-.875 10.41-6.286 9.69-12.301-.74-6.224-6.46-10.567-12.62-9.655-25.61 3.796-47.54-2.333-65.17-18.221-7-6.305-11.99-13.014-15.19-18.064-2.89-4.566-8.66-6.362-13.64-4.262z" fill="#FFD200"/><path d="M1262.94 929.477c87.9 0 159.17-71.262 159.17-159.168s-71.27-159.168-159.17-159.168c-87.91 0-159.17 71.262-159.17 159.168s71.26 159.168 159.17 159.168z" fill="#FFE000"/><path d="M1112.31 821.813c9.8 28.545 27.56 53.832 51.09 72.723L1413.56 718.8a159.867 159.867 0 00-51.09-72.723l-250.16 175.736z" fill="#FFEB6E"/><path d="M1262.94 889.661c65.91 0 119.35-53.436 119.35-119.352s-53.44-119.352-119.35-119.352c-65.92 0-119.35 53.436-119.35 119.352s53.43 119.352 119.35 119.352z" fill="#FFCE00"/><path d="M1305.13 779.322c3.8.665 6.19 4.552 5.02 8.229-7.97 25.059-33.42 40.999-60.04 36.348-26.63-4.652-45.17-28.28-44.17-54.559.15-3.854 3.72-6.7 7.52-6.039l91.67 16.021z" fill="#C70000"/><path d="M1250.11 823.899c20.18 3.525 39.68-4.799 51.41-19.951-7.05-4.115-15.14-7.184-24-8.728-21.77-3.806-42.4 2.347-55.13 14.605 7.4 7.094 16.87 12.178 27.72 14.074z" fill="#FF0041"/><path d="M1221.84 749.603c-5.49-.96-9.17-6.191-8.21-11.679l.95-5.407c.96-5.492 6.19-9.165 11.68-8.205 5.49.96 9.16 6.191 8.2 11.678l-.94 5.407c-.96 5.493-6.19 9.166-11.68 8.206z" fill="url(#paint2_linear_6003_3020)"/><path d="M1300.31 763.315c-5.49-.96-9.16-6.191-8.2-11.679l.94-5.406c.96-5.493 6.19-9.166 11.68-8.206 5.49.96 9.17 6.191 8.21 11.679l-.95 5.407c-.96 5.492-6.19 9.165-11.68 8.205z" fill="url(#paint3_linear_6003_3020)"/><path d="M1466.31 932.389c-2.4 0-4.82-.774-6.84-2.371-41.09-32.342-43.43-93.481-43.51-96.066-.19-6.115 4.62-11.222 10.73-11.408.12-.004.23-.004.35-.004 5.95 0 10.87 4.727 11.06 10.719.02.532 2.18 53.475 35.06 79.36 4.81 3.782 5.64 10.747 1.86 15.551a11.073 11.073 0 01-8.71 4.219z" fill="#FFD200"/><path opacity=".8" d="M1155.41 759.809c11.35-64.931 73.19-108.372 138.12-97.026 22.61 3.953 42.62 14.035 58.61 28.232-17.28-19.471-41.02-33.449-68.66-38.276-64.93-11.346-126.77 32.09-138.11 97.025-7.39 42.315 8.48 83.314 38.41 109.878-23.32-26.274-34.88-62.541-28.37-99.833z" fill="#FFAE00"/><path opacity=".4" d="M83.732 1002.46c144.551 0 261.732-117.177 261.732-261.728S228.283 479 83.732 479C-60.818 479-178 596.181-178 740.732c0 144.551 117.181 261.728 261.732 261.728z" fill="url(#paint4_radial_6003_3020)"/><path d="M69.536 841.604c58.769 0 106.41-47.641 106.41-106.41s-47.641-106.41-106.41-106.41-106.41 47.641-106.41 106.41 47.641 106.41 106.41 106.41z" fill="#008F99"/><path d="M106.58 887.762a8.443 8.443 0 01-6.942-3.618c-13.878-19.872-19.662-57.672-19.902-59.274a8.466 8.466 0 017.116-9.624c4.62-.696 8.928 2.49 9.624 7.11.054.354 5.448 35.484 17.046 52.092a8.461 8.461 0 01-2.094 11.784 8.474 8.474 0 01-4.848 1.53zm57.102-20.292a8.449 8.449 0 01-6.114-2.61c-20.172-21.06-28.71-45.396-29.064-46.422a8.462 8.462 0 015.238-10.758c4.416-1.524 9.222.822 10.752 5.226.078.216 7.782 21.96 25.29 40.248 3.234 3.372 3.114 8.73-.258 11.964a8.404 8.404 0 01-5.844 2.352zm46.986-131.094c-13.956 0-32.58-4.362-49.482-22.596a7.41 7.41 0 01.396-10.464c3-2.778 7.686-2.604 10.464.396 11.766 12.696 25.764 18.678 41.61 17.766 12.216-.702 21.12-5.376 21.21-5.424a7.39 7.39 0 0110.026 2.976c1.95 3.594.612 8.094-2.982 10.044-.456.252-11.4 6.108-26.706 7.14a60.958 60.958 0 01-4.536.162z" fill="#00ACA5"/><path d="M91.592 836.12c58.768 0 106.41-47.641 106.41-106.41S150.36 623.3 91.592 623.3c-58.769 0-106.41 47.641-106.41 106.41s47.641 106.41 106.41 106.41z" fill="#00DBB7"/><path d="M194.474 756.938a106.89 106.89 0 01-30.63 50.916l-175.14-105.366a106.89 106.89 0 0130.63-50.916l175.14 105.366z" fill="#00F0D7"/><path d="M91.592 809.504c44.069 0 79.794-35.725 79.794-79.794 0-44.069-35.725-79.794-79.794-79.794-44.07 0-79.794 35.725-79.794 79.794 0 44.069 35.725 79.794 79.794 79.794z" fill="#00BCB7"/><path d="M105.626 712.436a5.402 5.402 0 003.936-6.546l-1.044-4.188a5.402 5.402 0 00-10.482 2.61l1.044 4.188a5.404 5.404 0 006.546 3.936z" fill="url(#paint5_linear_6003_3020)"/><path d="M77.294 720.638a5.402 5.402 0 003.936-6.546l-1.044-4.188a5.402 5.402 0 00-10.482 2.61l1.044 4.188a5.397 5.397 0 006.546 3.936z" fill="url(#paint6_linear_6003_3020)"/><path d="M88.634 744.074c-.21 0-.42 0-.624-.006-12.834-.156-22.974-4.896-23.4-5.1a4.242 4.242 0 013.63-7.668c.09.042 9.102 4.218 20.136 4.284 14.208.102 25.134-6.492 32.502-19.554a4.253 4.253 0 015.784-1.614 4.253 4.253 0 011.614 5.784c-11.088 19.65-27.552 23.874-39.642 23.874z" fill="#006C89"/><path d="M169.022 710.45c-10.638-42.768-53.928-68.808-96.696-58.176-16.284 4.05-30.138 12.834-40.47 24.522 9.3-8.22 20.658-14.388 33.54-17.592 42.768-10.638 86.058 15.408 96.696 58.176 6.588 26.484-.9 53.166-17.706 72.174 21.588-19.08 32.07-49.218 24.636-79.104z" fill="#00ACA5"/><path opacity=".2" d="M1178.73 436.464c144.55 0 261.73-117.181 261.73-261.732C1440.46 30.182 1323.28-87 1178.73-87S917 30.181 917 174.732c0 144.551 117.18 261.732 261.73 261.732z" fill="url(#paint7_radial_6003_3020)"/><path d="M1186.44 253.986c43.4 0 78.57-35.177 78.57-78.57 0-43.393-35.17-78.57-78.57-78.57-43.39 0-78.57 35.177-78.57 78.57 0 43.393 35.18 78.57 78.57 78.57z" fill="#FA1194"/><path d="M1184.92 286.014a6.246 6.246 0 01-6.23-5.838c-1.53-23.232-3.08-40.632-3.09-40.806a6.245 6.245 0 015.66-6.78 6.24 6.24 0 016.78 5.664c.02.174 1.58 17.706 3.12 41.094a6.24 6.24 0 01-5.83 6.642c-.14.024-.27.024-.41.024zm-50.77-4.992a6.243 6.243 0 01-5.35-9.462c9.2-15.342 14.32-30.942 14.37-31.098a6.25 6.25 0 0111.89 3.852c-.22.69-5.57 17.064-15.54 33.672a6.238 6.238 0 01-5.37 3.036zm-31.52-87.39c-11.99 0-21.19-4.344-27.41-8.7-9.28-6.498-13.95-14.382-14.15-14.718a5.467 5.467 0 019.43-5.532c.62 1.032 15.08 24.624 44.41 16.2 2.9-.834 5.93.846 6.76 3.744a5.458 5.458 0 01-3.74 6.762c-5.52 1.578-10.62 2.244-15.3 2.244z" fill="#F3B"/><path d="M1169.68 253.302c43.39 0 78.57-35.177 78.57-78.57 0-43.393-35.18-78.57-78.57-78.57-43.4 0-78.57 35.177-78.57 78.57 0 43.393 35.17 78.57 78.57 78.57z" fill="#FF40E1"/><path d="M1099.32 209.748a78.902 78.902 0 0029.74 32.256l110.96-102.288a78.946 78.946 0 00-29.73-32.256l-110.97 102.288z" fill="#FF69F0"/><path d="M1169.68 233.652c32.54 0 58.92-26.379 58.92-58.92s-26.38-58.92-58.92-58.92c-32.54 0-58.92 26.379-58.92 58.92s26.38 58.92 58.92 58.92z" fill="#FF24C4"/><path d="M1196.85 165.204c2.36.096 4.11 2.376 3.7 4.83-2.85 16.734-17.01 29.142-33.51 28.47-16.5-.672-29.61-14.19-31.08-31.098-.21-2.478 1.73-4.614 4.08-4.518l56.81 2.316z" fill="#83003E"/><path d="M1155.21 154.998a4.184 4.184 0 01-4.01-4.356l.03-.75a4.181 4.181 0 014.35-4.014 4.199 4.199 0 014.02 4.356l-.03.75a4.196 4.196 0 01-4.36 4.014zm25.26.534a4.199 4.199 0 01-4.02-4.356l.03-.75c.1-2.31 2.05-4.11 4.36-4.014a4.184 4.184 0 014.01 4.356l-.03.75a4.181 4.181 0 01-4.35 4.014z" fill="#36003B"/><path d="M1187.06 192.276c-2.6-4.926-10.03-8.484-18.78-8.484-8.73 0-16.13 3.534-18.76 8.436 4.97 3.72 10.98 6.018 17.52 6.282 7.42.3 14.36-2.046 20.02-6.234z" fill="#FF60C3"/><path d="M1254.41 199.404a5.468 5.468 0 01-5.25-3.948 5.464 5.464 0 013.73-6.768c.33-.096 21.14-6.366 31.11-21.792 1.63-2.538 5.02-3.264 7.56-1.626a5.47 5.47 0 011.62 7.56c-12.25 18.954-36.24 26.064-37.25 26.358-.51.144-1.02.216-1.52.216z" fill="#F3B"/><path opacity=".5" d="M1117.93 173.022c1.32-32.406 28.57-57.624 60.94-56.484a60.22 60.22 0 00-6.8-.672c-32.52-1.32-59.94 23.964-61.26 56.472-1.32 32.514 23.72 59.94 56.23 61.26.11.006.45.006.56.012-29.16-4.572-50.9-30.384-49.67-60.588z" fill="#FF119D"/></g><defs><radialGradient id="paint0_radial_6003_3020" cx="0" cy="0" r="1" gradientUnits="userSpaceOnUse" gradientTransform="translate(180.733 235.728) scale(164.73)"><stop stop-color="#A08DFF"/><stop offset=".097" stop-color="#9A87F6" stop-opacity=".903"/><stop offset=".256" stop-color="#8977DD" stop-opacity=".744"/><stop offset=".457" stop-color="#6D5CB5" stop-opacity=".543"/><stop offset=".693" stop-color="#46377D" stop-opacity=".307"/><stop offset=".955" stop-color="#160837" stop-opacity=".045"/><stop offset="1" stop-color="#0D002A" stop-opacity="0"/></radialGradient><radialGradient id="paint1_radial_6003_3020" cx="0" cy="0" r="1" gradientUnits="userSpaceOnUse" gradientTransform="translate(1272.64 794.437) scale(307.436)"><stop stop-color="#FFE300"/><stop offset=".218" stop-color="#CFB608" stop-opacity=".782"/><stop offset=".71" stop-color="#57451D" stop-opacity=".29"/><stop offset="1" stop-color="#0D002A" stop-opacity="0"/></radialGradient><radialGradient id="paint4_radial_6003_3020" cx="0" cy="0" r="1" gradientUnits="userSpaceOnUse" gradientTransform="translate(83.732 740.731) scale(261.732)"><stop offset=".009" stop-color="#00ACA5"/><stop offset=".121" stop-color="#01A39F" stop-opacity=".886"/><stop offset=".306" stop-color="#038A8D" stop-opacity=".7"/><stop offset=".539" stop-color="#066270" stop-opacity=".465"/><stop offset=".81" stop-color="#0A2B49" stop-opacity=".192"/><stop offset="1" stop-color="#0D002A" stop-opacity="0"/></radialGradient><radialGradient id="paint7_radial_6003_3020" cx="0" cy="0" r="1" gradientUnits="userSpaceOnUse" gradientTransform="translate(1178.73 174.732) scale(261.732)"><stop stop-color="#FF60C3"/><stop offset=".088" stop-color="#F65CBD" stop-opacity=".912"/><stop offset=".233" stop-color="#DD53AE" stop-opacity=".767"/><stop offset=".416" stop-color="#B54394" stop-opacity=".584"/><stop offset=".631" stop-color="#7D2C71" stop-opacity=".369"/><stop offset=".869" stop-color="#371144" stop-opacity=".131"/><stop offset="1" stop-color="#0D002A" stop-opacity="0"/></radialGradient><linearGradient id="paint2_linear_6003_3020" x1="1225.81" y1="727.098" x2="1221.27" y2="753.134" gradientUnits="userSpaceOnUse"><stop stop-color="#3D3C3E"/><stop offset=".079" stop-color="#313032"/><stop offset=".26" stop-color="#1B1B1C"/><stop offset=".458" stop-color="#0C0C0C"/><stop offset=".684" stop-color="#030303"/><stop offset="1"/></linearGradient><linearGradient id="paint3_linear_6003_3020" x1="1304.29" y1="740.807" x2="1299.74" y2="766.843" gradientUnits="userSpaceOnUse"><stop stop-color="#3D3C3E"/><stop offset=".079" stop-color="#313032"/><stop offset=".26" stop-color="#1B1B1C"/><stop offset=".458" stop-color="#0C0C0C"/><stop offset=".684" stop-color="#030303"/><stop offset="1"/></linearGradient><linearGradient id="paint5_linear_6003_3020" x1="104.198" y1="697.339" x2="102.076" y2="716.173" gradientUnits="userSpaceOnUse"><stop stop-color="#3D3C3E"/><stop offset=".079" stop-color="#313032"/><stop offset=".26" stop-color="#1B1B1C"/><stop offset=".458" stop-color="#0C0C0C"/><stop offset=".684" stop-color="#030303"/><stop offset="1"/></linearGradient><linearGradient id="paint6_linear_6003_3020" x1="76.388" y1="703.115" x2="71.613" y2="733.365" gradientUnits="userSpaceOnUse"><stop stop-color="#3D3C3E"/><stop offset=".079" stop-color="#313032"/><stop offset=".26" stop-color="#1B1B1C"/><stop offset=".458" stop-color="#0C0C0C"/><stop offset=".684" stop-color="#030303"/><stop offset="1"/></linearGradient><clipPath id="clip0_6003_3020"><path d="M0 0h1440v1048c0 17.67-14.33 32-32 32H32c-17.673 0-32-14.33-32-32V0z" fill="#fff"/></clipPath></defs></svg>