<svg width="1440" height="639" viewBox="0 0 1440 639" fill="none" xmlns="http://www.w3.org/2000/svg"><g clip-path="url(#clip0_389_3)"><mask id="a" style="mask-type:luminance" maskUnits="userSpaceOnUse" x="0" y="-441" width="1440" height="1080"><path d="M0-441h1440V607c0 17.67-14.33 32-32 32H32c-17.673 0-32-14.33-32-32V-441z" fill="#fff"/></mask><g mask="url(#a)"><path d="M1342.25 112.926a6.74 6.74 0 006.74-6.738 6.74 6.74 0 00-13.48 0 6.74 6.74 0 006.74 6.738z" fill="#fff"/><path opacity=".5" d="M1244.17 542.148a3.372 3.372 0 000-6.744 3.372 3.372 0 000 6.744z" fill="#fff"/><path opacity=".2" d="M181.895 598.45a3.371 3.371 0 003.372-3.37 3.371 3.371 0 00-6.744 0c0 1.86 1.51 3.37 3.372 3.37zM1398.53 365.718a3.372 3.372 0 000-6.744 3.372 3.372 0 000 6.744zM901.47 1.968a3.372 3.372 0 100-6.745 3.372 3.372 0 000 6.745zM194.573 20.502a3.372 3.372 0 100-6.745 3.372 3.372 0 000 6.745zm186.248 19.446a1.686 1.686 0 100-3.372 1.686 1.686 0 000 3.372zm-34.352 435.276a1.686 1.686 0 100-3.372 1.686 1.686 0 000 3.372zM1274.02 49.68c.93 0 1.68-.755 1.68-1.686 0-.931-.75-1.686-1.68-1.686-.94 0-1.69.755-1.69 1.686 0 .93.75 1.686 1.69 1.686zM657.204 331.014a2.381 2.381 0 10.001-4.763 2.381 2.381 0 00-.001 4.763zm678.306 213.51c1.32 0 2.38-1.066 2.38-2.382a2.377 2.377 0 00-2.38-2.382 2.377 2.377 0 00-2.38 2.382 2.377 2.377 0 002.38 2.382z" fill="#fff"/><path opacity=".4" d="M433.261 393.48a3.372 3.372 0 100-6.745 3.372 3.372 0 000 6.745z" fill="#fff"/><path opacity=".2" d="M886.817 451.866a3.372 3.372 0 100-6.743 3.372 3.372 0 000 6.743z" fill="#fff"/><path opacity=".1" d="M568.187 478.254a6.402 6.402 0 100-12.804 6.402 6.402 0 100 12.804z" fill="#fff"/><path opacity=".5" d="M40.362 127.212a3.372 3.372 0 100-6.744 3.372 3.372 0 000 6.744z" fill="#fff"/><path d="M787.302 538.77a8.46 8.46 0 008.46-8.46 8.46 8.46 0 10-16.92 0 8.46 8.46 0 008.46 8.46z" fill="#fff"/><mask id="b" style="mask-type:luminance" maskUnits="userSpaceOnUse" x="4" y="-380" width="1512" height="1178"><path d="M1440.58-379.911L4.09-279.462 79.427 797.91 1515.92 697.46l-75.34-1077.371z" fill="#fff"/></mask><g mask="url(#b)"><path d="M1643.93-204.579l-369.2 25.817c-13.3.93-23.32 12.463-22.39 25.763.93 13.3 12.46 23.325 25.76 22.395l25.35-1.773c10.7-.748 19.99 7.324 20.74 18.026s-7.32 19.987-18.03 20.736l-138.15 9.66c-13.3.93-23.33 12.464-22.4 25.764l.59 8.319c.93 13.3 12.46 23.326 25.76 22.396l208.09-14.552c12.96-.906 24.19 8.864 25.1 21.817.91 12.958-8.87 24.19-21.82 25.097l-59.58 4.166c-14.19.993-24.89 13.3-23.89 27.486.99 14.19 13.3 24.885 27.48 23.893l344.92-24.12c14.19-.992 24.89-13.3 23.89-27.485-.99-14.191-13.3-24.885-27.48-23.893l-62.72 4.386c-13.26.927-24.76-9.071-25.69-22.335-.93-13.263 9.07-24.765 22.33-25.692l155.66-10.885c12.74-.891 23.79 8.718 24.68 21.455 1.05 15.023 14.08 26.346 29.1 25.296l254.8-17.817c15.42-1.08 27.05-14.457 25.97-29.881-1.08-15.424-14.45-27.054-29.88-25.975l-108.66 7.598c-13.74.96-25.66-9.404-26.62-23.147-.97-13.748 9.4-25.666 23.14-26.627l29.15-2.039c10.7-.748 18.78-10.034 18.03-20.736-.75-10.701-10.04-18.773-20.74-18.025l-15.57 1.089-266.18 18.613c-12.78.893-23.86-8.737-24.76-21.516-.96-13.82-12.95-24.241-26.78-23.274z" fill="#fff" opacity=".1"/></g><mask id="c" style="mask-type:luminance" maskUnits="userSpaceOnUse" x="-66" y="-478" width="1496" height="1154"><path d="M1372.76-477.942L-65.27-402.579-8.747 675.94l1438.027-75.36-56.52-1078.522z" fill="#fff"/></mask><g mask="url(#c)" fill="#fff"><path opacity=".1" d="M199.299 517.26c-.726-13.865 9.925-25.701 23.796-26.428l18.778-.984c13.865-.726 24.522-12.556 23.796-26.427-.727-13.865-12.557-24.523-26.428-23.796l-335.168 17.566c-13.865.726-24.522 12.556-23.796 26.427.727 13.865 12.557 24.523 26.428 23.796l122.412-6.416c13.865-.726 25.7 9.925 26.428 23.796.727 13.865-9.925 25.7-23.796 26.427l-80.613 4.225c-13.865.727-24.523 12.554-23.795 26.424.726 13.87 12.556 24.53 26.427 23.8l404.457-21.2c13.865-.72 24.522-12.55 23.795-26.425-.726-13.865-12.556-24.523-26.427-23.796l-129.866 6.806c-13.865.721-25.701-9.93-26.428-23.795zm268.765 60.14l-24.614 1.29c-12.912.68-23.923-9.24-24.599-22.149-.677-12.912 9.243-23.922 22.149-24.598l24.614-1.29c12.912-.677 23.923 9.242 24.599 22.148.677 12.909-9.243 23.919-22.149 24.599z"/></g><path opacity=".4" d="M1272.64 660.87c169.79 0 307.43-137.642 307.43-307.434C1580.07 183.644 1442.43 46 1272.64 46c-169.8 0-307.441 137.644-307.441 307.436 0 169.792 137.641 307.434 307.441 307.434z" fill="url(#paint0_radial_389_3)"/><path d="M1269.66 563.72c-.9 0-1.81-.1-2.73-.3-6.83-1.5-11.14-8.255-9.64-15.082 6.42-29.211 5.65-91.842 5.64-92.474-.1-6.989 5.49-12.734 12.48-12.829h.18c6.9 0 12.55 5.555 12.65 12.482.04 2.689.82 66.219-6.23 98.256-1.3 5.917-6.53 9.947-12.35 9.947z" fill="#FFD200"/><path d="M1296.42 494.326c87.91 0 159.17-71.262 159.17-159.168s-71.26-159.168-159.17-159.168c-87.91 0-159.17 71.262-159.17 159.168s71.26 159.168 159.17 159.168z" fill="#FF9D00"/><path d="M1183.75 540.418c-2.9 0-5.82-.993-8.2-3.022-5.32-4.533-5.96-12.52-1.43-17.841 25.34-29.729 42.32-65.516 42.48-65.872 2.98-6.319 10.52-9.037 16.84-6.063 6.33 2.975 9.04 10.506 6.07 16.829-.75 1.583-18.53 39.132-46.13 71.521a12.591 12.591 0 01-9.63 4.448zM1047.72 278.96c-6.31 2.66-8.72 10.357-5.05 16.145 3.98 6.257 9.96 14.282 18.28 21.927 13.39 12.31 35.17 25.704 66.56 25.704 5.42 0 11.14-.399 17.14-1.273 5.99-.875 10.41-6.286 9.69-12.301-.74-6.224-6.46-10.567-12.62-9.655-25.61 3.796-47.54-2.333-65.17-18.221-7-6.305-11.99-13.014-15.19-18.064-2.89-4.566-8.66-6.362-13.64-4.262z" fill="#FFD200"/><path d="M1262.94 488.477c87.9 0 159.17-71.262 159.17-159.168s-71.27-159.168-159.17-159.168c-87.91 0-159.17 71.262-159.17 159.168s71.26 159.168 159.17 159.168z" fill="#FFE000"/><path d="M1112.31 380.813c9.8 28.545 27.56 53.832 51.09 72.723L1413.56 277.8a159.867 159.867 0 00-51.09-72.723l-250.16 175.736z" fill="#FFEB6E"/><path d="M1262.94 448.661c65.91 0 119.35-53.436 119.35-119.352s-53.44-119.352-119.35-119.352c-65.92 0-119.35 53.436-119.35 119.352s53.43 119.352 119.35 119.352z" fill="#FFCE00"/><path d="M1305.13 338.322c3.8.665 6.19 4.552 5.02 8.229-7.97 25.059-33.42 40.999-60.04 36.348-26.63-4.652-45.17-28.28-44.17-54.559.15-3.854 3.72-6.7 7.52-6.039l91.67 16.021z" fill="#C70000"/><path d="M1250.11 382.899c20.18 3.525 39.68-4.799 51.41-19.951-7.05-4.115-15.14-7.184-24-8.728-21.77-3.806-42.4 2.347-55.13 14.605 7.4 7.094 16.87 12.178 27.72 14.074z" fill="#FF0041"/><path d="M1221.84 308.603c-5.49-.96-9.17-6.191-8.21-11.679l.95-5.407c.96-5.492 6.19-9.165 11.68-8.205 5.49.96 9.16 6.191 8.2 11.678l-.94 5.407c-.96 5.493-6.19 9.166-11.68 8.206z" fill="url(#paint1_linear_389_3)"/><path d="M1300.31 322.315c-5.49-.96-9.16-6.191-8.2-11.679l.94-5.406c.96-5.493 6.19-9.166 11.68-8.206 5.49.96 9.17 6.191 8.21 11.679l-.95 5.407c-.96 5.492-6.19 9.165-11.68 8.205z" fill="url(#paint2_linear_389_3)"/><path d="M1466.31 491.389c-2.4 0-4.82-.774-6.84-2.371-41.09-32.342-43.43-93.481-43.51-96.066-.19-6.115 4.62-11.222 10.73-11.408.12-.004.23-.004.35-.004 5.95 0 10.87 4.727 11.06 10.719.02.532 2.18 53.475 35.06 79.36 4.81 3.782 5.64 10.747 1.86 15.551a11.073 11.073 0 01-8.71 4.219z" fill="#FFD200"/><path opacity=".8" d="M1155.41 318.809c11.35-64.931 73.19-108.372 138.12-97.026 22.61 3.953 42.62 14.035 58.61 28.232-17.28-19.471-41.02-33.449-68.66-38.276-64.93-11.346-126.77 32.09-138.11 97.025-7.39 42.315 8.48 83.314 38.41 109.878-23.32-26.274-34.88-62.541-28.37-99.833z" fill="#FFAE00"/><path opacity=".4" d="M83.732 561.46c144.551 0 261.732-117.177 261.732-261.728S228.283 38 83.732 38C-60.818 38-178 155.181-178 299.732-178 444.283-60.819 561.46 83.732 561.46z" fill="url(#paint3_radial_389_3)"/><path d="M69.537 400.604c58.769 0 106.41-47.641 106.41-106.41s-47.641-106.41-106.41-106.41-106.41 47.641-106.41 106.41 47.641 106.41 106.41 106.41z" fill="#008F99"/><path d="M106.581 446.762a8.443 8.443 0 01-6.942-3.618c-13.878-19.872-19.662-57.672-19.902-59.274a8.466 8.466 0 017.116-9.624c4.62-.696 8.928 2.49 9.624 7.11.054.354 5.448 35.484 17.046 52.092a8.461 8.461 0 01-2.094 11.784 8.474 8.474 0 01-4.848 1.53zm57.101-20.292a8.449 8.449 0 01-6.114-2.61c-20.172-21.06-28.71-45.396-29.064-46.422a8.462 8.462 0 015.238-10.758c4.416-1.524 9.222.822 10.752 5.226.078.216 7.782 21.96 25.29 40.248 3.234 3.372 3.114 8.73-.258 11.964a8.404 8.404 0 01-5.844 2.352zm46.987-131.094c-13.956 0-32.58-4.362-49.482-22.596a7.41 7.41 0 01.396-10.464c3-2.778 7.686-2.604 10.464.396 11.766 12.696 25.764 18.678 41.61 17.766 12.216-.702 21.12-5.376 21.21-5.424a7.39 7.39 0 0110.026 2.976c1.95 3.594.612 8.094-2.982 10.044-.456.252-11.4 6.108-26.706 7.14a60.958 60.958 0 01-4.536.162z" fill="#00ACA5"/><path d="M91.592 395.12c58.768 0 106.41-47.641 106.41-106.41S150.36 182.3 91.592 182.3c-58.769 0-106.41 47.641-106.41 106.41s47.641 106.41 106.41 106.41z" fill="#00DBB7"/><path d="M194.474 315.938a106.89 106.89 0 01-30.63 50.916l-175.14-105.366a106.89 106.89 0 0130.63-50.916l175.14 105.366z" fill="#00F0D7"/><path d="M91.593 368.504c44.069 0 79.794-35.725 79.794-79.794 0-44.069-35.725-79.794-79.794-79.794-44.07 0-79.794 35.725-79.794 79.794 0 44.069 35.725 79.794 79.794 79.794z" fill="#00BCB7"/><path d="M105.626 271.436a5.402 5.402 0 003.936-6.546l-1.044-4.188a5.402 5.402 0 00-10.482 2.61l1.044 4.188a5.404 5.404 0 006.546 3.936z" fill="url(#paint4_linear_389_3)"/><path d="M77.294 279.638a5.402 5.402 0 003.936-6.546l-1.044-4.188a5.402 5.402 0 00-10.482 2.61l1.044 4.188a5.397 5.397 0 006.546 3.936z" fill="url(#paint5_linear_389_3)"/><path d="M88.635 303.074c-.21 0-.42 0-.624-.006-12.834-.156-22.974-4.896-23.4-5.1a4.242 4.242 0 013.63-7.668c.09.042 9.102 4.218 20.136 4.284 14.208.102 25.134-6.492 32.502-19.554a4.253 4.253 0 015.784-1.614 4.253 4.253 0 011.614 5.784c-11.088 19.65-27.552 23.874-39.642 23.874z" fill="#006C89"/><path d="M169.021 269.45c-10.638-42.768-53.928-68.808-96.696-58.176-16.284 4.05-30.138 12.834-40.47 24.522 9.3-8.22 20.659-14.388 33.54-17.592 42.768-10.638 86.058 15.408 96.696 58.176 6.588 26.484-.9 53.166-17.706 72.174 21.588-19.08 32.07-49.218 24.636-79.104z" fill="#00ACA5"/></g></g><defs><linearGradient id="paint1_linear_389_3" x1="1225.81" y1="286.098" x2="1221.27" y2="312.134" gradientUnits="userSpaceOnUse"><stop stop-color="#3D3C3E"/><stop offset=".079" stop-color="#313032"/><stop offset=".26" stop-color="#1B1B1C"/><stop offset=".458" stop-color="#0C0C0C"/><stop offset=".684" stop-color="#030303"/><stop offset="1"/></linearGradient><linearGradient id="paint2_linear_389_3" x1="1304.29" y1="299.807" x2="1299.74" y2="325.843" gradientUnits="userSpaceOnUse"><stop stop-color="#3D3C3E"/><stop offset=".079" stop-color="#313032"/><stop offset=".26" stop-color="#1B1B1C"/><stop offset=".458" stop-color="#0C0C0C"/><stop offset=".684" stop-color="#030303"/><stop offset="1"/></linearGradient><linearGradient id="paint4_linear_389_3" x1="104.198" y1="256.339" x2="102.076" y2="275.173" gradientUnits="userSpaceOnUse"><stop stop-color="#3D3C3E"/><stop offset=".079" stop-color="#313032"/><stop offset=".26" stop-color="#1B1B1C"/><stop offset=".458" stop-color="#0C0C0C"/><stop offset=".684" stop-color="#030303"/><stop offset="1"/></linearGradient><linearGradient id="paint5_linear_389_3" x1="76.388" y1="262.115" x2="71.613" y2="292.365" gradientUnits="userSpaceOnUse"><stop stop-color="#3D3C3E"/><stop offset=".079" stop-color="#313032"/><stop offset=".26" stop-color="#1B1B1C"/><stop offset=".458" stop-color="#0C0C0C"/><stop offset=".684" stop-color="#030303"/><stop offset="1"/></linearGradient><radialGradient id="paint0_radial_389_3" cx="0" cy="0" r="1" gradientUnits="userSpaceOnUse" gradientTransform="translate(1272.64 353.437) scale(307.436)"><stop stop-color="#FFE300"/><stop offset=".218" stop-color="#CFB608" stop-opacity=".782"/><stop offset=".71" stop-color="#57451D" stop-opacity=".29"/><stop offset="1" stop-color="#0D002A" stop-opacity="0"/></radialGradient><radialGradient id="paint3_radial_389_3" cx="0" cy="0" r="1" gradientUnits="userSpaceOnUse" gradientTransform="translate(83.732 299.731) scale(261.732)"><stop offset=".009" stop-color="#00ACA5"/><stop offset=".121" stop-color="#01A39F" stop-opacity=".886"/><stop offset=".306" stop-color="#038A8D" stop-opacity=".7"/><stop offset=".539" stop-color="#066270" stop-opacity=".465"/><stop offset=".81" stop-color="#0A2B49" stop-opacity=".192"/><stop offset="1" stop-color="#0D002A" stop-opacity="0"/></radialGradient><clipPath id="clip0_389_3"><path fill="#fff" transform="translate(0 -441)" d="M0 0h1440v1080H0z"/></clipPath></defs></svg>